<svg aria-hidden="true" style="width:0;height:0;position:absolute;overflow:hidden" xmlns="http://www.w3.org/2000/svg"><defs><symbol id="icon-burger" viewBox="0 0 54 32"><path fill="none" stroke="#f4f4f4" style="stroke:var(--color1,#f4f4f4)" stroke-linecap="round" stroke-miterlimit="10" stroke-width="5.053" d="M3.368 3.368h47.158M3.368 16.842h47.158M3.368 28.632h47.158"/></symbol><symbol id="icon-bus" viewBox="0 0 28 32"><path fill="#395c4b" style="fill:var(--color2,#395c4b)" d="M3.765 32c-.474 0-.872-.161-1.193-.482-.32-.32-.48-.717-.48-1.191v-3.43a7.134 7.134 0 0 1-1.213-1.862 5.39 5.39 0 0 1-.46-2.237V6.903c0-2.315 1.074-4.009 3.221-5.083C5.787.747 9.175.21 13.805.21c4.796 0 8.227.516 10.29 1.548s3.095 2.747 3.095 5.145v15.895a5.39 5.39 0 0 1-.46 2.237 7.117 7.117 0 0 1-1.213 1.862v3.43c0 .474-.161.871-.482 1.191-.32.321-.717.482-1.191.482h-1.673c-.474 0-.871-.161-1.191-.482a1.615 1.615 0 0 1-.482-1.191v-1.673H7.112v1.673c0 .474-.16.871-.48 1.191A1.621 1.621 0 0 1 5.439 32H3.766zm0-18.405h20.078v-5.02H3.765v5.02zm4.183 10.039c.697 0 1.29-.244 1.777-.733.489-.487.733-1.08.733-1.777s-.244-1.289-.733-1.777c-.487-.489-1.08-.733-1.777-.733s-1.289.244-1.777.733c-.489.487-.733 1.08-.733 1.777s.244 1.289.733 1.777c.487.489 1.08.733 1.777.733zm11.712 0c.697 0 1.289-.244 1.777-.733.489-.487.733-1.08.733-1.777s-.244-1.289-.733-1.777c-.487-.489-1.08-.733-1.777-.733s-1.289.244-1.777.733c-.489.487-.733 1.08-.733 1.777s.244 1.289.733 1.777c.487.489 1.08.733 1.777.733z"/></symbol><symbol id="icon-cross" viewBox="0 0 32 32"><path fill="none" stroke="#f4f4f4" style="stroke:var(--color1,#f4f4f4)" stroke-linejoin="round" stroke-linecap="round" stroke-width="2.909" d="M30.545 30.545 1.454 1.454m29.091.001L1.454 30.546"/></symbol><symbol id="icon-facebook" viewBox="0 0 32 32"><path fill="#f1f6f6" style="fill:var(--color3,#f1f6f6)" d="M16 .376C7.373.376.314 7.419.314 16.094c0 7.843 5.741 14.353 13.239 15.529v-10.98H9.569v-4.549h3.984v-3.467c0-3.937 2.337-6.102 5.929-6.102 1.71 0 3.498.298 3.498.298v3.875h-1.976c-1.945 0-2.557 1.208-2.557 2.447v2.949h4.361l-.706 4.549h-3.655v10.98a15.688 15.688 0 0 0 13.239-15.53C31.686 7.418 24.627.375 16 .375z"/></symbol><symbol id="icon-insta" viewBox="0 0 32 32"><path fill="#f1f6f6" style="fill:var(--color3,#f1f6f6)" d="M9.412.314h13.176c5.02 0 9.098 4.078 9.098 9.098v13.176a9.098 9.098 0 0 1-9.098 9.098H9.412c-5.02 0-9.098-4.079-9.098-9.098V9.412A9.098 9.098 0 0 1 9.412.314zm-.314 3.137a5.646 5.646 0 0 0-5.647 5.647v13.804a5.643 5.643 0 0 0 5.647 5.647h13.804a5.646 5.646 0 0 0 5.647-5.647V9.098a5.643 5.643 0 0 0-5.647-5.647H9.098zm15.137 2.353a1.957 1.957 0 0 1 1.387 3.346 1.962 1.962 0 0 1-3.347-1.386 1.961 1.961 0 0 1 1.96-1.96zM16 8.157a7.843 7.843 0 1 1 0 15.686 7.843 7.843 0 0 1 0-15.686zm0 3.137A4.702 4.702 0 0 0 11.294 16 4.702 4.702 0 0 0 16 20.706 4.708 4.708 0 0 0 20.706 16 4.708 4.708 0 0 0 16 11.294z"/></symbol><symbol id="icon-left" viewBox="0 0 18 32"><path fill="#a3a5a3" style="fill:var(--color4,#a3a5a3)" d="M16.289 32a1.585 1.585 0 0 1-1.054-.419L.434 16.997a1.465 1.465 0 0 1 0-2.078L15.235.335a1.512 1.512 0 0 1 2.01.098 1.466 1.466 0 0 1 .099 1.981L3.579 15.959l13.765 13.545a1.465 1.465 0 0 1 0 2.078 1.58 1.58 0 0 1-1.055.419z"/></symbol><symbol id="icon-location" viewBox="0 0 23 32"><path fill="#f1f6f6" style="fill:var(--color3,#f1f6f6)" d="M11.294 0C5.05 0 0 5.008 0 11.2 0 19.6 11.294 32 11.294 32s11.294-12.4 11.294-20.8c0-6.192-5.05-11.2-11.294-11.2zm0 15.2c-1.07 0-2.096-.421-2.852-1.171S7.261 12.261 7.261 11.2c0-1.061.425-2.078 1.181-2.828S10.224 7.2 11.294 7.2c1.07 0 2.096.421 2.852 1.172s1.181 1.768 1.181 2.828c0 1.061-.425 2.078-1.181 2.829S12.364 15.2 11.294 15.2z"/></symbol><symbol id="icon-male" viewBox="0 0 42 32"><path fill="#f1f6f6" style="fill:var(--color3,#f1f6f6)" d="M37.661 0H4.184C1.882 0 .02 1.8.02 4l-.021 24c0 2.2 1.883 4 4.185 4h33.477c2.302 0 4.185-1.8 4.185-4V4c0-2.2-1.883-4-4.185-4zm-.837 8.5-14.793 8.84a2.2 2.2 0 0 1-2.218 0L5.02 8.5c-.21-.113-.394-.265-.54-.447s-.253-.391-.312-.614c-.06-.223-.071-.455-.034-.682s.122-.445.249-.64c.128-.195.295-.363.493-.495s.421-.223.657-.269a1.828 1.828 0 0 1 1.371.267L20.922 14 34.94 5.62a1.845 1.845 0 0 1 2.028.002c.198.131.365.3.493.495a1.636 1.636 0 0 1-.098 1.936c-.147.182-.33.335-.54.447z"/></symbol><symbol id="icon-phone" viewBox="0 0 20 32"><path fill="#f1f6f6" style="fill:var(--color3,#f1f6f6)" d="M15.795 0H3.761c-.997 0-1.954.383-2.659 1.065S.001 2.672.001 3.636v24.727c0 .964.396 1.889 1.101 2.571s1.662 1.065 2.659 1.065h12.034c.997 0 1.954-.383 2.659-1.065s1.102-1.607 1.102-2.571V3.636c0-.964-.396-1.889-1.102-2.571S16.792 0 15.795 0zM9.778 30.546c-1.249 0-2.256-.975-2.256-2.182s1.008-2.182 2.256-2.182c1.249 0 2.256.975 2.256 2.182s-1.008 2.182-2.256 2.182zm6.769-5.819H3.009V4.363h13.538v20.364z"/></symbol><symbol id="icon-right" viewBox="0 0 18 32"><path fill="#395c4b" style="fill:var(--color2,#395c4b)" d="M1.488 32a1.59 1.59 0 0 0 1.055-.419l14.801-14.584a1.465 1.465 0 0 0 0-2.078L2.543.335a1.512 1.512 0 0 0-2.01.098 1.466 1.466 0 0 0-.099 1.981l13.765 13.545L.434 29.504a1.465 1.465 0 0 0 0 2.078 1.58 1.58 0 0 0 1.055.419z"/></symbol><symbol id="icon-star" viewBox="0 0 34 32"><path fill="#395c4b" style="fill:var(--color2,#395c4b)" d="M16.06 1.141c.369-1.134 1.973-1.134 2.341 0l2.974 9.154c.165.507.637.85 1.171.85h9.625c1.192 0 1.688 1.526.723 2.226l-7.787 5.658a1.23 1.23 0 0 0-.447 1.376l2.974 9.154c.369 1.134-.929 2.077-1.894 1.376l-7.787-5.658a1.232 1.232 0 0 0-1.447 0l-7.787 5.658c-.965.701-2.262-.242-1.894-1.376l2.974-9.154a1.23 1.23 0 0 0-.447-1.376l-7.787-5.658c-.965-.701-.469-2.226.723-2.226h9.625c.533 0 1.006-.343 1.171-.85l2.974-9.154z"/></symbol><symbol id="icon-telegram" viewBox="0 0 32 32"><path fill="#f1f6f6" style="fill:var(--color3,#f1f6f6)" d="M15.991.314a15.686 15.686 0 1 0-.001 31.37A15.686 15.686 0 0 0 15.992.316zm4.988 23.768a1.106 1.106 0 0 1-1.572.552l-4.259-3.31-2.733 2.522a.472.472 0 0 1-.447.062l.524-4.689.016.014.011-.093s7.663-6.977 7.975-7.274c.317-.296.212-.361.212-.361.019-.361-.566 0-.566 0L9.986 18.037l-4.227-1.44s-.649-.232-.711-.745c-.064-.508.731-.784.731-.784L22.59 8.389s1.382-.615 1.382.405l-2.993 15.288z"/></symbol></defs></svg>