<svg aria-hidden="true" style="position: absolute; width: 0; height: 0; overflow: hidden;" version="1.1" xmlns="http://www.w3.org/2000/svg" xmlns:xlink="http://www.w3.org/1999/xlink">
<defs>
<symbol id="icon-burger" viewBox="0 0 54 32">
<path fill="none" stroke="#f4f4f4" style="stroke: var(--color1, #f4f4f4)" stroke-linejoin="miter" stroke-linecap="round" stroke-miterlimit="10" stroke-width="5.0526" d="M3.368 3.368h47.158M3.368 16.842h47.158M3.368 28.632h47.158"></path>
</symbol>
<symbol id="icon-bus" viewBox="0 0 28 32">
<path fill="#395c4b" style="fill: var(--color2, #395c4b)" d="M3.765 32c-0.474 0-0.872-0.161-1.193-0.482-0.32-0.32-0.48-0.717-0.48-1.191v-3.43c-0.502-0.558-0.906-1.178-1.213-1.862-0.307-0.683-0.46-1.428-0.46-2.237v-15.895c0-2.315 1.074-4.009 3.221-5.083 2.147-1.073 5.535-1.61 10.165-1.61 4.796 0 8.227 0.516 10.29 1.548s3.095 2.747 3.095 5.145v15.895c0 0.809-0.153 1.554-0.46 2.237-0.307 0.684-0.711 1.305-1.213 1.862v3.43c0 0.474-0.161 0.871-0.482 1.191-0.32 0.321-0.717 0.482-1.191 0.482h-1.673c-0.474 0-0.871-0.161-1.191-0.482-0.321-0.32-0.482-0.717-0.482-1.191v-1.673h-13.386v1.673c0 0.474-0.16 0.871-0.48 1.191-0.321 0.321-0.719 0.482-1.193 0.482h-1.673zM3.765 13.595h20.078v-5.020h-20.078v5.020zM7.948 23.634c0.697 0 1.29-0.244 1.777-0.733 0.489-0.487 0.733-1.080 0.733-1.777s-0.244-1.289-0.733-1.777c-0.487-0.489-1.080-0.733-1.777-0.733s-1.289 0.244-1.777 0.733c-0.489 0.487-0.733 1.080-0.733 1.777s0.244 1.289 0.733 1.777c0.487 0.489 1.080 0.733 1.777 0.733zM19.66 23.634c0.697 0 1.289-0.244 1.777-0.733 0.489-0.487 0.733-1.080 0.733-1.777s-0.244-1.289-0.733-1.777c-0.487-0.489-1.080-0.733-1.777-0.733s-1.289 0.244-1.777 0.733c-0.489 0.487-0.733 1.080-0.733 1.777s0.244 1.289 0.733 1.777c0.487 0.489 1.080 0.733 1.777 0.733z"></path>
</symbol>
<symbol id="icon-cross" viewBox="0 0 32 32">
<path fill="none" stroke="#f4f4f4" style="stroke: var(--color1, #f4f4f4)" stroke-linejoin="round" stroke-linecap="round" stroke-miterlimit="4" stroke-width="2.9091" d="M30.545 30.545l-29.091-29.091M30.545 1.455l-29.091 29.091"></path>
</symbol>
<symbol id="icon-facebook" viewBox="0 0 32 32">
<path fill="#f1f6f6" style="fill: var(--color3, #f1f6f6)" d="M16 0.376c-8.627 0-15.686 7.043-15.686 15.718 0 7.843 5.741 14.353 13.239 15.529v-10.98h-3.984v-4.549h3.984v-3.467c0-3.937 2.337-6.102 5.929-6.102 1.71 0 3.498 0.298 3.498 0.298v3.875h-1.976c-1.945 0-2.557 1.208-2.557 2.447v2.949h4.361l-0.706 4.549h-3.655v10.98c3.696-0.584 7.062-2.47 9.49-5.318s3.758-6.47 3.749-10.212c0-8.675-7.059-15.718-15.686-15.718z"></path>
</symbol>
<symbol id="icon-insta" viewBox="0 0 32 32">
<path fill="#f1f6f6" style="fill: var(--color3, #f1f6f6)" d="M9.412 0.314h13.176c5.020 0 9.098 4.078 9.098 9.098v13.176c0 2.413-0.959 4.727-2.665 6.433s-4.020 2.665-6.433 2.665h-13.176c-5.020 0-9.098-4.079-9.098-9.098v-13.176c0-2.413 0.959-4.727 2.665-6.433s4.020-2.665 6.433-2.665zM9.098 3.451c-1.498 0-2.934 0.595-3.993 1.654s-1.654 2.495-1.654 3.993v13.804c0 3.122 2.526 5.647 5.647 5.647h13.804c1.498 0 2.934-0.595 3.993-1.654s1.654-2.495 1.654-3.993v-13.804c0-3.122-2.526-5.647-5.647-5.647h-13.804zM24.235 5.804c0.52 0 1.019 0.207 1.387 0.574s0.574 0.866 0.574 1.386c0 0.52-0.207 1.019-0.574 1.386s-0.866 0.574-1.387 0.574c-0.52 0-1.019-0.207-1.386-0.574s-0.574-0.866-0.574-1.386 0.207-1.019 0.574-1.386c0.368-0.368 0.866-0.574 1.386-0.574zM16 8.157c2.080 0 4.075 0.826 5.546 2.297s2.297 3.466 2.297 5.546-0.826 4.075-2.297 5.546c-1.471 1.471-3.466 2.297-5.546 2.297s-4.075-0.826-5.546-2.297c-1.471-1.471-2.297-3.466-2.297-5.546s0.826-4.075 2.297-5.546c1.471-1.471 3.466-2.297 5.546-2.297zM16 11.294c-1.248 0-2.445 0.496-3.328 1.378s-1.378 2.079-1.378 3.328c0 1.248 0.496 2.445 1.378 3.328s2.079 1.378 3.328 1.378 2.445-0.496 3.328-1.378c0.882-0.882 1.378-2.079 1.378-3.328s-0.496-2.445-1.378-3.328c-0.883-0.883-2.080-1.378-3.328-1.378z"></path>
</symbol>
<symbol id="icon-left" viewBox="0 0 18 32">
<path fill="#a3a5a3" style="fill: var(--color4, #a3a5a3)" d="M16.289 32c-0.392-0.005-0.768-0.155-1.054-0.419l-14.801-14.584c-0.278-0.276-0.434-0.65-0.434-1.039s0.156-0.763 0.434-1.039l14.801-14.584c0.288-0.233 0.653-0.351 1.024-0.333s0.723 0.172 0.986 0.431c0.263 0.259 0.419 0.606 0.437 0.972s-0.102 0.726-0.338 1.009l-13.765 13.545 13.765 13.545c0.278 0.276 0.434 0.65 0.434 1.039s-0.156 0.763-0.434 1.039c-0.286 0.265-0.662 0.414-1.055 0.419z"></path>
</symbol>
<symbol id="icon-location" viewBox="0 0 23 32">
<path fill="#f1f6f6" style="fill: var(--color3, #f1f6f6)" d="M11.294-0c-6.244 0-11.294 5.008-11.294 11.2 0 8.4 11.294 20.8 11.294 20.8s11.294-12.4 11.294-20.8c0-6.192-5.050-11.2-11.294-11.2zM11.294 15.2c-1.070 0-2.096-0.421-2.852-1.171s-1.181-1.768-1.181-2.829c0-1.061 0.425-2.078 1.181-2.828s1.782-1.172 2.852-1.172c1.070 0 2.096 0.421 2.852 1.172s1.181 1.768 1.181 2.828c0 1.061-0.425 2.078-1.181 2.829s-1.782 1.171-2.852 1.171z"></path>
</symbol>
<symbol id="icon-male" viewBox="0 0 42 32">
<path fill="#f1f6f6" style="fill: var(--color3, #f1f6f6)" d="M37.661 0h-33.477c-2.302 0-4.164 1.8-4.164 4l-0.021 24c0 2.2 1.883 4 4.185 4h33.477c2.302 0 4.185-1.8 4.185-4v-24c0-2.2-1.883-4-4.185-4zM36.824 8.5l-14.793 8.84c-0.67 0.4-1.548 0.4-2.218 0l-14.793-8.84c-0.21-0.113-0.394-0.265-0.54-0.447s-0.253-0.391-0.312-0.614c-0.060-0.223-0.071-0.455-0.034-0.682s0.122-0.445 0.249-0.64c0.128-0.195 0.295-0.363 0.493-0.495s0.421-0.223 0.657-0.269c0.236-0.046 0.479-0.047 0.714-0.001s0.459 0.137 0.657 0.268l14.018 8.38 14.018-8.38c0.198-0.131 0.421-0.222 0.657-0.268s0.479-0.046 0.714 0.001c0.236 0.046 0.459 0.138 0.657 0.269s0.365 0.3 0.493 0.495c0.127 0.195 0.212 0.413 0.249 0.64s0.025 0.459-0.034 0.682c-0.060 0.223-0.166 0.432-0.313 0.614s-0.33 0.335-0.54 0.447z"></path>
</symbol>
<symbol id="icon-phone" viewBox="0 0 20 32">
<path fill="#f1f6f6" style="fill: var(--color3, #f1f6f6)" d="M15.795 0h-12.034c-0.997 0-1.954 0.383-2.659 1.065s-1.101 1.607-1.101 2.571v24.727c0 0.964 0.396 1.889 1.101 2.571s1.662 1.065 2.659 1.065h12.034c0.997 0 1.954-0.383 2.659-1.065s1.102-1.607 1.102-2.571v-24.727c0-0.964-0.396-1.889-1.102-2.571s-1.662-1.065-2.659-1.065zM9.778 30.546c-1.249 0-2.256-0.975-2.256-2.182s1.008-2.182 2.256-2.182c1.249 0 2.256 0.975 2.256 2.182s-1.008 2.182-2.256 2.182zM16.547 24.727h-13.538v-20.364h13.538v20.364z"></path>
</symbol>
<symbol id="icon-right" viewBox="0 0 18 32">
<path fill="#395c4b" style="fill: var(--color2, #395c4b)" d="M1.488 32c0.392-0.005 0.768-0.155 1.055-0.419l14.801-14.584c0.278-0.276 0.434-0.65 0.434-1.039s-0.156-0.763-0.434-1.039l-14.801-14.584c-0.288-0.233-0.653-0.351-1.024-0.333s-0.723 0.172-0.986 0.431c-0.263 0.259-0.419 0.606-0.437 0.972s0.102 0.726 0.338 1.009l13.765 13.545-13.765 13.545c-0.278 0.276-0.434 0.65-0.434 1.039s0.156 0.763 0.434 1.039c0.286 0.265 0.662 0.414 1.055 0.419z"></path>
</symbol>
<symbol id="icon-star" viewBox="0 0 34 32">
<path fill="#395c4b" style="fill: var(--color2, #395c4b)" d="M16.060 1.141c0.369-1.134 1.973-1.134 2.341 0l2.974 9.154c0.165 0.507 0.637 0.85 1.171 0.85h9.625c1.192 0 1.688 1.526 0.723 2.226l-7.787 5.658c-0.431 0.313-0.612 0.869-0.447 1.376l2.974 9.154c0.369 1.134-0.929 2.077-1.894 1.376l-7.787-5.658c-0.431-0.313-1.015-0.313-1.447 0l-7.787 5.658c-0.965 0.701-2.262-0.242-1.894-1.376l2.974-9.154c0.165-0.507-0.016-1.063-0.447-1.376l-7.787-5.658c-0.965-0.701-0.469-2.226 0.723-2.226h9.625c0.533 0 1.006-0.343 1.171-0.85l2.974-9.154z"></path>
</symbol>
<symbol id="icon-telegram" viewBox="0 0 32 32">
<path fill="#f1f6f6" style="fill: var(--color3, #f1f6f6)" d="M15.991 0.314c-3.102 0-6.135 0.92-8.715 2.644s-4.59 4.173-5.777 7.040c-1.187 2.866-1.498 6.020-0.893 9.063s2.099 5.838 4.293 8.032c2.194 2.194 4.989 3.688 8.032 4.293s6.197 0.295 9.063-0.893c2.866-1.187 5.316-3.198 7.040-5.777s2.644-5.612 2.644-8.715c0-2.060-0.406-4.1-1.194-6.003s-1.944-3.632-3.4-5.089c-1.457-1.457-3.186-2.612-5.089-3.4s-3.943-1.194-6.003-1.194zM20.979 24.082c-0.059 0.147-0.148 0.279-0.262 0.388s-0.25 0.193-0.399 0.245c-0.149 0.052-0.307 0.072-0.464 0.058s-0.31-0.061-0.447-0.139l-4.259-3.31-2.733 2.522c-0.063 0.047-0.138 0.077-0.216 0.088s-0.158 0.002-0.231-0.026l0.524-4.689 0.016 0.014 0.011-0.093c0 0 7.663-6.977 7.975-7.274 0.317-0.296 0.212-0.361 0.212-0.361 0.019-0.361-0.566 0-0.566 0l-10.154 6.532-4.227-1.44c0 0-0.649-0.232-0.711-0.745-0.064-0.508 0.731-0.784 0.731-0.784l16.811-6.679c0 0 1.382-0.615 1.382 0.405l-2.993 15.288z"></path>
</symbol>
</defs>
</svg>
