<svg aria-hidden="true" style="position: absolute; width: 0; height: 0; overflow: hidden;" version="1.1" xmlns="http://www.w3.org/2000/svg" xmlns:xlink="http://www.w3.org/1999/xlink">
<defs>
<symbol id="icon-logo" viewBox="0 0 32 32">
<path fill="#f1f6f6" style="fill: var(--color1, #f1f6f6)" d="M15.528 11.967l0.726 0.357c-0.492 0.799-1.075 1.509-1.751 2.132-0.668 0.622-1.559 1.241-2.673 1.855 0.215 1.114 0.48 2.005 0.795 2.673 0.315 0.676 0.726 1.052 1.233 1.129v0.53c-0.061 0.008-0.142 0.012-0.242 0.012-0.515 0-1.014-0.357-1.498-1.072-0.476-0.714-0.906-1.771-1.29-3.169-0.33 1.037-0.833 1.859-1.509 2.466-0.676 0.599-1.379 0.899-2.109 0.899-0.376 0-0.687-0.104-0.933-0.311-0.238-0.2-0.357-0.476-0.357-0.83 0-0.361 0.161-0.734 0.484-1.118s0.764-0.707 1.325-0.968l0.265 0.415c-0.691 0.492-1.037 0.953-1.037 1.383 0 0.207 0.069 0.376 0.207 0.507 0.138 0.123 0.319 0.184 0.542 0.184 0.522 0 0.972-0.219 1.348-0.657 0.384-0.445 0.726-1.221 1.025-2.327 0.376-1.39 0.76-2.301 1.152-2.731 0.177-0.2 0.434-0.419 0.772-0.657-0.53 0.015-1.072 0.108-1.625 0.277-0.553 0.161-1.037 0.407-1.452 0.737-0.415 0.323-0.622 0.684-0.622 1.083 0 0.515 0.234 0.926 0.703 1.233l-0.23 0.357c-0.43-0.207-0.768-0.476-1.014-0.807s-0.369-0.672-0.369-1.025c0-0.484 0.265-0.941 0.795-1.371s1.179-0.764 1.947-1.002c0.776-0.238 1.536-0.357 2.281-0.357 0.461 0 0.691 0.1 0.691 0.3 0 0.131-0.134 0.296-0.403 0.495-0.492 0.369-0.872 0.849-1.141 1.44-0.261 0.591-0.476 1.283-0.645 2.074 0.876-0.323 1.713-0.857 2.512-1.602 0.807-0.753 1.506-1.598 2.097-2.535z"></path>
<path fill="#f1f6f6" style="fill: var(--color1, #f1f6f6)" d="M25.241 20.067l-0.138 0.426c-0.2 0.015-0.35 0.023-0.449 0.023-0.461 0-0.837-0.196-1.129-0.588-0.284-0.384-0.426-0.887-0.426-1.509 0-0.376 0.084-1.087 0.253-2.132 0.177-1.052 0.38-2.013 0.611-2.881 0.046-0.192 0.069-0.319 0.069-0.38s-0.027-0.092-0.081-0.092c-0.054 0-0.227 0.288-0.518 0.864-0.284 0.568-0.626 1.271-1.025 2.109-0.399 0.83-0.63 1.306-0.691 1.429-0.054 0.115-0.1 0.211-0.138 0.288-0.031 0.069-0.1 0.2-0.207 0.392-0.1 0.184-0.196 0.349-0.288 0.495-0.253 0.384-0.453 0.576-0.599 0.576-0.1 0-0.211-0.027-0.334-0.081-0.115-0.054-0.192-0.111-0.23-0.173-0.084-0.131-0.127-0.538-0.127-1.221 0-1.429 0.115-2.792 0.346-4.090 0.077-0.43 0.115-0.657 0.115-0.68 0-0.077-0.031-0.115-0.092-0.115-0.123 0-0.319 0.384-0.588 1.152l-0.334 0.956c-0.492 1.39-0.991 2.473-1.498 3.249-0.499 0.776-1.075 1.321-1.728 1.636l-0.3-0.634c0.745-0.553 1.317-1.118 1.717-1.694 0.407-0.576 0.849-1.506 1.325-2.788l0.392-1.049c0.269-0.73 0.503-1.248 0.703-1.555 0.2-0.315 0.422-0.472 0.668-0.472 0.407 0 0.611 0.246 0.611 0.737 0 0.038-0.073 0.818-0.219 2.339-0.146 1.513-0.219 2.512-0.219 2.996 0 0.138 0.023 0.211 0.069 0.219 0.038 0 0.081-0.038 0.127-0.115 0.622-1.037 1.218-2.166 1.786-3.387 0.069-0.154 0.188-0.419 0.357-0.795s0.334-0.711 0.495-1.002c0.161-0.292 0.284-0.469 0.369-0.53 0.084-0.069 0.219-0.104 0.403-0.104s0.342 0.069 0.472 0.207c0.138 0.131 0.207 0.288 0.207 0.472s-0.027 0.396-0.081 0.634c-0.599 2.927-0.899 4.678-0.899 5.254 0 0.568 0.092 0.956 0.277 1.164 0.184 0.215 0.507 0.365 0.968 0.449z"></path>
<path fill="none" stroke="#395c4b" style="stroke: var(--color2, #395c4b)" stroke-linejoin="miter" stroke-linecap="butt" stroke-miterlimit="4" stroke-width="2.4615" d="M16 30.769c8.157 0 14.769-6.612 14.769-14.769s-6.612-14.769-14.769-14.769c-8.157 0-14.769 6.612-14.769 14.769s6.612 14.769 14.769 14.769z"></path>
</symbol>
</defs>
</svg>
